<?xml version="1.0" standalone="no"?>
<!DOCTYPE svg PUBLIC "-//W3C//DTD SVG 20010904//EN"
 "http://www.w3.org/TR/2001/REC-SVG-20010904/DTD/svg10.dtd">
<svg version="1.0" xmlns="http://www.w3.org/2000/svg"
 width="1024.000000pt" height="1024.000000pt" viewBox="0 0 1024.000000 1024.000000"
 preserveAspectRatio="xMidYMid meet">

<g transform="translate(0.000000,1024.000000) scale(0.100000,-0.100000)"
fill="#000000" stroke="none">
<path d="M4060 8865 c-270 -75 -400 -304 -360 -635 7 -58 9 -105 4 -110 -5 -5
-51 -3 -109 5 -133 19 -286 19 -360 0 -271 -71 -407 -317 -329 -595 74 -261
380 -518 759 -640 251 -80 422 -104 740 -104 217 0 487 20 539 40 45 17 60
699 21 994 -74 564 -280 927 -585 1030 -86 29 -242 36 -320 15z"/>
<path d="M4000 6545 c-289 -42 -539 -129 -723 -254 -282 -190 -411 -396 -394
-629 22 -317 319 -497 707 -427 41 7 79 11 84 8 8 -6 6 -34 -14 -153 -13 -85
-12 -173 6 -257 51 -247 228 -384 479 -370 149 8 262 59 388 177 218 203 361
526 432 980 33 207 30 849 -4 869 -15 9 -104 26 -256 47 -155 22 -581 27 -705
9z"/>
<path d="M5550 6540 c-165 -22 -262 -39 -277 -48 -20 -12 -36 -319 -30 -542
11 -383 81 -702 212 -975 105 -218 249 -383 398 -454 110 -53 172 -65 301 -59
100 4 111 7 190 46 96 48 150 101 198 196 56 111 74 285 43 431 -25 115 -40
105 158 98 142 -5 183 -3 237 11 268 69 418 272 382 519 -46 320 -392 602
-904 737 -224 59 -634 77 -908 40z"/>
<path d="M5620 3005 l0 -795 154 0 155 0 3 383 3 383 26 49 c37 73 90 106 176
112 57 4 75 1 113 -19 49 -25 84 -70 100 -127 6 -21 10 -190 10 -408 l0 -373
160 0 161 0 -3 443 c-3 434 -3 443 -26 498 -45 112 -111 177 -221 221 -48 18
-76 22 -191 22 -125 1 -139 -1 -190 -25 -30 -14 -67 -38 -82 -52 -15 -13 -29
-22 -32 -19 -3 3 -6 117 -6 254 l0 248 -155 0 -155 0 0 -795z"/>
<path d="M1290 2990 l0 -782 388 5 c430 5 468 9 599 71 99 47 162 108 204 198
31 68 33 80 34 178 0 114 -14 161 -72 237 -34 45 -130 108 -178 117 -44 9 -44
19 -2 34 45 16 120 92 147 146 33 69 45 153 33 228 -22 129 -88 220 -202 278
-118 59 -149 63 -568 67 l-383 5 0 -782z m745 480 c62 -31 88 -73 88 -144 0
-82 -39 -138 -118 -172 -31 -13 -80 -18 -217 -22 l-178 -4 0 187 0 187 188 -4
c176 -3 190 -4 237 -28z m23 -615 c171 -51 186 -283 23 -359 -42 -19 -67 -21
-258 -24 l-213 -3 0 206 0 206 198 -5 c135 -4 214 -11 250 -21z"/>
<path d="M2740 2990 l0 -780 163 0 162 0 -3 315 -3 315 315 0 316 0 0 140 0
140 -315 0 -315 0 0 190 1 190 357 0 357 0 0 135 0 135 -517 0 -518 0 0 -780z"/>
<path d="M3990 2990 l0 -780 160 0 159 0 7 35 c3 19 4 304 0 632 -3 329 -5
664 -6 746 l0 147 -160 0 -160 0 0 -780z"/>
<path d="M4873 3386 c-187 -47 -335 -201 -390 -406 -25 -92 -25 -321 1 -405
42 -139 142 -268 253 -328 76 -40 191 -67 292 -67 155 0 277 46 370 139 53 53
121 162 121 193 0 9 -18 19 -47 26 -27 7 -90 23 -142 37 -74 20 -96 23 -103
13 -4 -7 -8 -16 -8 -20 0 -17 -56 -71 -92 -89 -51 -26 -148 -28 -203 -5 -99
42 -137 119 -143 287 -5 137 8 209 48 272 54 86 158 125 258 98 50 -14 114
-68 132 -112 10 -24 17 -29 34 -24 12 3 76 18 144 34 67 16 125 31 129 34 3 3
-8 35 -25 71 -52 111 -144 193 -268 237 -75 27 -281 36 -361 15z"/>
<path d="M7206 3384 c-137 -33 -249 -126 -301 -248 -15 -37 -25 -69 -22 -72 3
-3 72 -18 152 -33 l146 -28 15 36 c23 54 53 80 113 98 62 18 132 13 187 -13
43 -21 73 -78 74 -140 l0 -41 -172 -7 c-207 -8 -299 -25 -395 -72 -86 -41
-143 -102 -174 -183 -30 -81 -24 -224 13 -296 68 -131 210 -205 395 -205 139
0 240 32 312 99 18 17 35 31 37 31 2 0 4 -22 4 -50 l0 -50 148 0 147 0 -2 397
c-3 438 -9 496 -62 588 -57 100 -167 171 -302 194 -88 15 -241 13 -313 -5z
m367 -724 c-4 -116 -41 -173 -138 -211 -46 -17 -184 -16 -220 3 -54 28 -70 55
-70 113 0 46 4 58 30 85 18 19 50 37 85 47 51 15 218 32 285 29 l30 -1 -2 -65z"/>
<path d="M8542 3385 c-59 -16 -130 -61 -155 -97 -15 -22 -16 -21 -16 40 l-1
62 -160 0 -160 0 0 -590 0 -590 159 0 160 0 3 378 c3 357 4 379 24 422 65 142
260 175 356 62 43 -51 48 -105 48 -497 l0 -365 160 0 160 0 0 388 c0 213 -5
419 -10 457 -21 143 -114 268 -235 315 -78 30 -253 38 -333 15z"/>
</g>
</svg>
